{
    "asset" : {
        "generator" : "Khronos glTF Blender I/O v1.7.33",
        "version" : "2.0"
    },
    "scene" : 33,
    "scenes" : [
        {
            "name" : "comp_scene.002"
        },
        {
            "name" : "comp_scene.003"
        },
        {
            "name" : "comp_scene.004"
        },
        {
            "name" : "comp_scene.005"
        },
        {
            "name" : "comp_scene.006"
        },
        {
            "name" : "comp_scene.007"
        },
        {
            "name" : "comp_scene.008"
        },
        {
            "name" : "comp_scene.009"
        },
        {
            "name" : "comp_scene.010"
        },
        {
            "name" : "comp_scene.011"
        },
        {
            "name" : "comp_scene.012"
        },
        {
            "name" : "comp_scene.013"
        },
        {
            "name" : "comp_scene.014"
        },
        {
            "name" : "comp_scene.015"
        },
        {
            "name" : "comp_scene.016"
        },
        {
            "name" : "comp_scene.017"
        },
        {
            "name" : "comp_scene.018"
        },
        {
            "name" : "comp_scene.019"
        },
        {
            "name" : "comp_scene.020"
        },
        {
            "name" : "comp_scene.021"
        },
        {
            "name" : "comp_scene.022"
        },
        {
            "name" : "comp_scene.023"
        },
        {
            "name" : "comp_scene.024"
        },
        {
            "name" : "comp_scene.025"
        },
        {
            "name" : "comp_scene.026"
        },
        {
            "name" : "comp_scene.027"
        },
        {
            "name" : "comp_scene.028"
        },
        {
            "name" : "comp_scene.029"
        },
        {
            "name" : "comp_scene.030"
        },
        {
            "name" : "comp_scene.031"
        },
        {
            "name" : "comp_scene.032"
        },
        {
            "name" : "comp_scene.033"
        },
        {
            "name" : "comp_scene.034"
        },
        {
            "name" : "Scene",
            "nodes" : [
                0
            ]
        },
        {
            "name" : "bake scene.001"
        },
        {
            "name" : "bake scene.002"
        },
        {
            "name" : "bake scene.003"
        },
        {
            "name" : "bake scene.004"
        },
        {
            "name" : "bake scene.005"
        },
        {
            "name" : "bake scene.006"
        },
        {
            "name" : "bake scene.007"
        },
        {
            "name" : "bake scene.008"
        },
        {
            "name" : "bake scene.009"
        },
        {
            "name" : "bake scene.010"
        },
        {
            "name" : "bake scene.011"
        },
        {
            "name" : "bake scene.012"
        },
        {
            "name" : "bake scene.013"
        },
        {
            "name" : "bake scene.014"
        },
        {
            "name" : "bake scene.015"
        },
        {
            "name" : "bake scene.016"
        },
        {
            "name" : "bake scene.017"
        },
        {
            "name" : "bake scene.018"
        },
        {
            "name" : "bake scene.019"
        },
        {
            "name" : "bake scene.020"
        },
        {
            "name" : "bake scene.021"
        },
        {
            "name" : "bake scene.022"
        },
        {
            "name" : "bake scene.023"
        },
        {
            "name" : "bake scene.024"
        },
        {
            "name" : "bake scene.025"
        },
        {
            "name" : "bake scene.026"
        },
        {
            "name" : "bake scene.027"
        },
        {
            "name" : "bake scene.028"
        },
        {
            "name" : "bake scene.029"
        },
        {
            "name" : "bake scene.030"
        },
        {
            "name" : "bake scene.031"
        },
        {
            "name" : "bake scene.032"
        },
        {
            "name" : "bake scene.033"
        },
        {
            "name" : "bake scene.034"
        },
        {
            "name" : "comp_scene.001"
        },
        {
            "name" : "bake scene"
        },
        {
            "name" : "comp_scene"
        }
    ],
    "nodes" : [
        {
            "mesh" : 0,
            "name" : "Floor"
        }
    ],
    "materials" : [
        {
            "doubleSided" : true,
            "name" : "Floor",
            "pbrMetallicRoughness" : {
                "baseColorFactor" : [
                    0.800000011920929,
                    0.800000011920929,
                    0.800000011920929,
                    1
                ],
                "roughnessFactor" : 0.30000001192092896
            }
        }
    ],
    "meshes" : [
        {
            "name" : "Floor",
            "primitives" : [
                {
                    "attributes" : {
                        "POSITION" : 0,
                        "NORMAL" : 1,
                        "TEXCOORD_0" : 2
                    },
                    "indices" : 3,
                    "material" : 0
                }
            ]
        }
    ],
    "accessors" : [
        {
            "bufferView" : 0,
            "componentType" : 5126,
            "count" : 386,
            "max" : [
                2,
                0,
                2
            ],
            "min" : [
                -2,
                -0.08671865612268448,
                -2
            ],
            "type" : "VEC3"
        },
        {
            "bufferView" : 1,
            "componentType" : 5126,
            "count" : 386,
            "type" : "VEC3"
        },
        {
            "bufferView" : 2,
            "componentType" : 5126,
            "count" : 386,
            "type" : "VEC2"
        },
        {
            "bufferView" : 3,
            "componentType" : 5123,
            "count" : 1524,
            "type" : "SCALAR"
        }
    ],
    "bufferViews" : [
        {
            "buffer" : 0,
            "byteLength" : 4632,
            "byteOffset" : 0
        },
        {
            "buffer" : 0,
            "byteLength" : 4632,
            "byteOffset" : 4632
        },
        {
            "buffer" : 0,
            "byteLength" : 3088,
            "byteOffset" : 9264
        },
        {
            "buffer" : 0,
            "byteLength" : 3048,
            "byteOffset" : 12352
        }
    ],
    "buffers" : [
        {
            "byteLength" : 15400,
            "uri" : "data:application/octet-stream;base64,"
        }
    ]
}
